<svg width="400" height="475" viewBox="0 0 400 475" fill="none" xmlns="http://www.w3.org/2000/svg">
<path d="M54.968 408.336H82.744V445.968C79.832 447.536 76.3227 448.88 72.216 450C68.1093 451.045 63.704 451.568 59 451.568C47.128 451.568 38.2053 447.76 32.232 440.144C26.3333 432.453 23.384 423.157 23.384 412.256C23.384 400.683 26.744 391.125 33.464 383.584C40.184 376.043 49.2933 372.272 60.792 372.272C63.032 372.272 66.2053 372.645 70.312 373.392C74.4933 374.139 78.264 375.408 81.624 377.2L77.032 387.616C73.7467 386.645 71.0587 385.899 68.968 385.376C66.952 384.779 64.3013 384.48 61.016 384.48C54.296 384.48 48.8453 386.795 44.664 391.424C40.5573 395.979 38.504 402.885 38.504 412.144C38.504 420.507 40.184 427.152 43.544 432.08C46.9787 436.933 52.0187 439.36 58.664 439.36C61.128 439.36 63.256 439.248 65.048 439.024C66.84 438.725 68.408 438.427 69.752 438.128V419.536H53.736L54.968 408.336ZM128.468 408.336H156.244V445.968C153.332 447.536 149.823 448.88 145.716 450C141.609 451.045 137.204 451.568 132.5 451.568C120.628 451.568 111.705 447.76 105.732 440.144C99.8333 432.453 96.884 423.157 96.884 412.256C96.884 400.683 100.244 391.125 106.964 383.584C113.684 376.043 122.793 372.272 134.292 372.272C136.532 372.272 139.705 372.645 143.812 373.392C147.993 374.139 151.764 375.408 155.124 377.2L150.532 387.616C147.247 386.645 144.559 385.899 142.468 385.376C140.452 384.779 137.801 384.48 134.516 384.48C127.796 384.48 122.345 386.795 118.164 391.424C114.057 395.979 112.004 402.885 112.004 412.144C112.004 420.507 113.684 427.152 117.044 432.08C120.479 436.933 125.519 439.36 132.164 439.36C134.628 439.36 136.756 439.248 138.548 439.024C140.34 438.725 141.908 438.427 143.252 438.128V419.536H127.236L128.468 408.336ZM200.736 395.68L203.648 407.328C201.184 407.328 198.309 408.037 195.024 409.456C191.813 410.875 188.64 412.965 185.504 415.728V450H170.944V395.68H178.56L183.376 403.632C185.616 401.691 188.341 399.899 191.552 398.256C194.763 396.539 197.824 395.68 200.736 395.68ZM302.662 444.624C300.198 446.939 297.174 448.768 293.59 450.112C290.006 451.531 286.758 452.24 283.846 452.24C276.454 452.24 271.19 450.075 268.054 445.744C264.993 441.339 263.462 436.037 263.462 429.84V395.68H278.134V429.168C278.134 432.603 278.955 435.253 280.598 437.12C282.241 438.912 284.63 439.808 287.766 439.808C289.707 439.808 291.761 439.323 293.926 438.352C296.091 437.381 298.07 436.261 299.862 434.992V395.68H314.422V450H306.806L302.662 444.624ZM353.308 438.912C358.311 438.912 361.82 437.12 363.836 433.536C365.852 429.877 366.86 426.181 366.86 422.448C366.86 418.192 365.964 414.384 364.172 411.024C362.38 407.664 358.759 405.984 353.308 405.984C351.74 405.984 350.097 406.283 348.38 406.88C346.737 407.403 345.169 408.149 343.676 409.12V435.776C345.169 436.672 346.737 437.419 348.38 438.016C350.097 438.613 351.74 438.912 353.308 438.912ZM329.228 395.68H336.62L339.756 399.712C342.22 397.845 345.095 396.352 348.38 395.232C351.665 394.112 354.577 393.552 357.116 393.552C365.105 393.552 371.228 396.315 375.484 401.84C379.74 407.365 381.868 414.235 381.868 422.448C381.868 430.661 379.665 437.531 375.26 443.056C370.929 448.581 364.881 451.344 357.116 451.344C355.175 451.344 352.972 451.008 350.508 450.336C348.119 449.664 345.841 448.731 343.676 447.536V473.408L329.228 474.528V395.68Z" fill="black"/>
<g clip-path="url(#clip0_0_1)">
<path d="M229.5 400C213.231 400 200 413.231 200 429.5C200 445.769 213.231 459 229.5 459C245.769 459 259 445.769 259 429.5C259 413.231 245.769 400 229.5 400ZM229 411C246 411 246 411 246 429.5C246 446 246 447 229.5 447C212 447 212 446 212 430.5C212 411 212 411 229 411Z" fill="black"/>
<path d="M235.895 417.909C235.387 417.912 234.886 418.031 234.431 418.257C234.407 417.595 234.189 416.955 233.805 416.416C233.421 415.877 232.887 415.463 232.27 415.225C231.654 414.988 230.981 414.937 230.336 415.079C229.69 415.221 229.101 415.551 228.641 416.026C228.171 415.542 227.569 415.21 226.91 415.072C226.251 414.934 225.566 414.996 224.943 415.25C224.32 415.504 223.786 415.939 223.411 416.499C223.036 417.06 222.836 417.719 222.837 418.394V419.227C222.491 419.049 222.117 418.937 221.731 418.896C221.26 418.848 220.784 418.899 220.333 419.047C219.883 419.194 219.469 419.435 219.117 419.753C218.765 420.071 218.484 420.46 218.292 420.894C218.099 421.328 218 421.798 218 422.273V435.647C217.996 436.908 218.344 438.146 219.006 439.219C219.668 440.292 220.616 441.158 221.744 441.718L221.869 441.781V447H223.804V441.182C223.805 441.001 223.755 440.823 223.661 440.669C223.566 440.515 223.431 440.39 223.269 440.309L222.608 439.978C221.804 439.579 221.127 438.961 220.654 438.195C220.182 437.43 219.932 436.547 219.935 435.647V431.144C220.569 431.456 221.285 431.557 221.981 431.434C222.676 431.311 223.315 430.969 223.804 430.459C224.161 430.828 224.598 431.111 225.081 431.286C225.564 431.46 226.081 431.521 226.591 431.464C227.101 431.408 227.592 431.235 228.025 430.959C228.459 430.683 228.823 430.311 229.091 429.872C229.663 430.289 230.352 430.514 231.059 430.515H234.444V431.548C231.676 431.9 227.673 433.786 227.673 439.242H229.608C229.608 433.618 234.821 433.424 235.412 433.424C235.668 433.424 235.914 433.322 236.096 433.14C236.277 432.958 236.379 432.712 236.379 432.454V429.545C236.379 429.288 236.277 429.042 236.096 428.86C235.914 428.678 235.668 428.576 235.412 428.576H231.059C230.674 428.576 230.305 428.422 230.033 428.15C229.761 427.877 229.608 427.507 229.608 427.121C229.608 426.735 229.761 426.365 230.033 426.093C230.305 425.82 230.674 425.667 231.059 425.667H235.412C236.438 425.667 237.422 426.075 238.148 426.803C238.873 427.53 239.281 428.517 239.281 429.545V434.677C239.284 435.578 239.035 436.462 238.563 437.228C238.09 437.995 237.413 438.613 236.607 439.014L235.947 439.344C235.786 439.425 235.651 439.549 235.556 439.702C235.462 439.855 235.412 440.032 235.412 440.212V447H237.346V440.811L237.472 440.748C238.6 440.188 239.548 439.322 240.21 438.249C240.871 437.176 241.22 435.939 241.216 434.677V429.545C241.215 428.729 241.042 427.921 240.709 427.176C240.376 426.431 239.889 425.764 239.281 425.22V421.303C239.281 420.403 238.924 419.539 238.289 418.903C237.654 418.266 236.793 417.909 235.895 417.909ZM222.837 428.091C222.837 428.477 222.684 428.847 222.412 429.119C222.14 429.392 221.77 429.545 221.386 429.545C221.001 429.545 220.632 429.392 220.36 429.119C220.088 428.847 219.935 428.477 219.935 428.091V422.273C219.935 421.887 220.088 421.517 220.36 421.244C220.632 420.971 221.001 420.818 221.386 420.818C221.437 420.818 221.488 420.82 221.539 420.826C221.912 420.885 222.249 421.08 222.488 421.372C222.727 421.664 222.851 422.034 222.837 422.411V428.091ZM227.673 428.091C227.673 428.477 227.52 428.847 227.248 429.119C226.976 429.392 226.607 429.545 226.222 429.545C225.837 429.545 225.468 429.392 225.196 429.119C224.924 428.847 224.771 428.477 224.771 428.091V418.394C224.771 418.008 224.924 417.638 225.196 417.365C225.468 417.092 225.837 416.939 226.222 416.939C226.607 416.939 226.976 417.092 227.248 417.365C227.52 417.638 227.673 418.008 227.673 418.394V428.091ZM232.51 423.727H231.059C230.556 423.73 230.06 423.846 229.608 424.067V418.394C229.608 418.008 229.761 417.638 230.033 417.365C230.305 417.092 230.674 416.939 231.059 416.939C231.444 416.939 231.813 417.092 232.085 417.365C232.357 417.638 232.51 418.008 232.51 418.394V423.727ZM237.346 424.067C236.726 423.844 236.071 423.729 235.412 423.727H234.444V421.303C234.444 420.917 234.597 420.547 234.869 420.274C235.142 420.002 235.511 419.848 235.895 419.848C236.28 419.848 236.649 420.002 236.921 420.274C237.194 420.547 237.346 420.917 237.346 421.303V424.067Z" fill="black"/>
</g>
<path d="M302.211 138.559C301.1 136.71 299.53 135.18 297.653 134.118C295.775 133.056 293.655 132.497 291.498 132.497H203.998V32.4969C203.998 29.7103 203.066 27.0038 201.351 24.8074C199.636 22.6109 197.236 21.0505 194.533 20.374C191.83 19.6975 188.978 19.9436 186.431 21.0733C183.883 22.2031 181.787 24.1516 180.473 26.6094L80.4733 214.109C79.4565 216.014 78.9502 218.149 79.0039 220.307C79.0575 222.466 79.6692 224.573 80.7794 226.425C81.8896 228.276 83.4604 229.809 85.3389 230.873C87.2174 231.937 89.3394 232.497 91.4983 232.497H178.998V332.497C178.998 335.283 179.93 337.99 181.644 340.187C183.358 342.384 185.758 343.945 188.461 344.622C189.454 344.872 190.474 344.998 191.498 344.997C193.763 344.997 195.984 344.381 197.926 343.217C199.868 342.052 201.457 340.382 202.523 338.384L302.523 150.884C303.541 148.978 304.047 146.841 303.992 144.681C303.938 142.521 303.324 140.412 302.211 138.559V138.559ZM203.998 282.497V219.997C203.998 216.682 202.681 213.502 200.337 211.158C197.993 208.814 194.814 207.497 191.498 207.497H112.336L178.998 82.4969V144.997C178.998 148.312 180.315 151.492 182.659 153.836C185.004 156.18 188.183 157.497 191.498 157.497H270.661L203.998 282.497Z" fill="black"/>
<path d="M191.5 145.5V30L92 220.5H191.5V335L290.5 145.5H191.5Z" fill="black"/>
<defs>
<clipPath id="clip0_0_1">
<rect width="59" height="59" fill="white" transform="translate(200 400)"/>
</clipPath>
</defs>
</svg>
